<?xml version="1.0" encoding="UTF-8"?> <svg xmlns="http://www.w3.org/2000/svg" width="117" height="24.205" viewBox="0 0 117 24.205"><defs><style>.a{fill:#1d0054;}</style></defs><path class="a" d="M111.471,15.928h-6.134l4.815-8.739ZM117,23.809,112.185.077H110.7L96.478,23.809h4.331l2.748-4.76h8.376l.736,4.76ZM96.829.4H92.641l-4.3,23.413h4.177ZM75.45,3.836a8.074,8.074,0,0,1,3.847.682,2.428,2.428,0,0,1,1.154,2.3q0,3.842-6.046,3.836a16.237,16.237,0,0,1-1.682-.1L73.922,4c.879-.11,1.385-.165,1.528-.165M83,10.728a7.775,7.775,0,0,0,1.6-4.88,4.783,4.783,0,0,0-2.2-4.232A10.649,10.649,0,0,0,76.428.154c-.967,0-3.012.077-6.123.242L66.019,23.809h4.287l1.8-9.816q1.583.115,2.671.132l4.474,9.684h4.683L78.714,13.432A7.33,7.33,0,0,0,83,10.728M64.2.4H49.135l-4.32,23.413H59.709L60.4,20.16H49.794L51.1,12.9h7.738L59.5,9.42H51.762l.978-5.386H63.523ZM41.561,11.19H34.2l-.638,3.484H36.8l-.846,4.639a6.52,6.52,0,0,1-3.99,1.264,5.815,5.815,0,0,1-4.331-1.6,6.1,6.1,0,0,1-1.583-4.485,11.73,11.73,0,0,1,2.561-7.738A8.339,8.339,0,0,1,35.384,3.66a8.974,8.974,0,0,1,4.683,1.418L41.308,1.6C40.143.528,38.362,0,35.977,0q-6.6,0-10.432,4.067T21.72,15.081a8.961,8.961,0,0,0,2.517,6.54,8.718,8.718,0,0,0,6.54,2.583,15.05,15.05,0,0,0,8.838-2.528ZM19.39.4H4.32L0,23.809H14.894l.693-3.649H4.968L6.276,12.9h7.738l.66-3.484H6.936l.978-5.386H18.7Z"></path></svg>